#N canvas 651 125 826 673 12;
#X obj 101 43 netreceive -u -b 3000;
#X obj 101 74 oscparse;
#X obj 101 105 route list;
#X obj 304 145 route value;
#X obj 304 184 unpack float float float;
#X obj 377 229 vsl 40 170 0 255 0 0 empty empty G 0 -9 0 40 #fcfcfc #000000 #000000 0 1;
#X obj 433 228 vsl 40 170 0 255 0 0 empty empty B 0 -9 0 40 #fcfcfc #000000 #000000 0 1;
#X obj 308 230 vsl 40 170 0 255 0 0 empty empty \ R 0 -9 0 40 #fcfcfc #000000 #000000 0 1;
#X floatatom 306 411 0 0 0 0 - - - 24;
#X floatatom 375 412 0 0 0 0 - - - 24;
#X floatatom 431 411 0 0 0 0 - - - 24;
#X obj 101 165 route btns;
#X obj 106 664 bng 20 250 50 0 empty empty empty 0 -10 0 12 #fcfcfc #000000 #000000;
#X obj 212 664 bng 20 250 50 0 empty empty empty 0 -10 0 12 #fcfcfc #000000 #000000;
#X obj 106 607 unpack float float float float, f 47;
#X obj 323 662 bng 20 250 50 0 empty empty empty 0 -10 0 12 #fcfcfc #000000 #000000;
#X obj 431 661 bng 20 250 50 0 empty empty empty 0 -10 0 12 #fcfcfc #000000 #000000;
#X obj 808 371 soundfiler;
#X obj 804 39 bng 20 250 50 0 empty empty empty 0 -10 0 12 #fcfcfc #000000 #000000;
#N canvas 0 50 450 250 (subpatch) 0;
#X array 1_1 13200 float 2;
#A color 0;
#A width 2;
#X coords 0 1 13200 -1 200 140 1 0 0;
#X restore 1480 23 graph;
#X obj 106 695 tabplay~ 1_1;
#N canvas 0 50 450 250 (subpatch) 0;
#X array 1_2 18000 float 2;
#A color 0;
#A width 2;
#X coords 0 1 18000 -1 200 140 1 0 0;
#X restore 1481 183 graph;
#N canvas 0 50 450 250 (subpatch) 0;
#X array 1_3 18000 float 2;
#A color 0;
#A width 2;
#X coords 0 1 18000 -1 200 140 1 0 0;
#X restore 1480 344 graph;
#X obj 1428 980 bng 20 250 50 0 empty empty empty 0 -10 0 12 #fcfcfc #000000 #000000;
#X msg 803 91 read -resize sounds/1_1.wav 1_1;
#X msg 819 119 read -resize sounds/1_2.wav 1_2;
#X msg 851 170 read -resize sounds/1_4.wav 1_4;
#X msg 834 146 read -resize sounds/1_3.wav 1_3;
#N canvas 0 50 450 250 (subpatch) 0;
#X array 1_4 96000 float 2;
#A color 0;
#A width 2;
#X coords 0 1 96000 -1 200 140 1 0 0;
#X restore 1481 492 graph;
#X obj 323 691 tabplay~ 1_3;
#X obj 431 691 tabplay~ 1_4;
#N canvas 0 50 450 250 (subpatch) 0;
#X array 2_1 96000 float 2;
#A color 0;
#A width 2;
#X coords 0 1 96000 -1 200 140 1 0 0;
#X restore 1729 27 graph;
#N canvas 0 50 450 250 (subpatch) 0;
#X array 2_2 96000 float 2;
#A color 0;
#A width 2;
#X coords 0 1 96000 -1 200 140 1 0 0;
#X restore 1723 184 graph;
#N canvas 0 50 450 250 (subpatch) 0;
#X array 2_3 96000 float 2;
#A color 0;
#A width 2;
#X coords 0 1 96000 -1 200 140 1 0 0;
#X restore 1722 346 graph;
#N canvas 0 50 450 250 (subpatch) 0;
#X array 2_4 96000 float 2;
#A color 0;
#A width 2;
#X coords 0 1 96000 -1 200 140 1 0 0;
#X restore 1723 493 graph;
#X msg 884 221 read -resize sounds/2_2.wav 2_2;
#X msg 868 196 read -resize sounds/2_1.wav 2_1;
#X msg 900 246 read -resize sounds/2_3.wav 2_3;
#X msg 920 271 read -resize sounds/2_4.wav 2_4;
#X obj 549 686 tabplay~ 2_1;
#X obj 654 685 tabplay~ 2_2;
#X obj 758 684 tabplay~ 2_3;
#X obj 862 684 tabplay~ 2_4;
#X obj 723 39 loadbang;
#X msg 724 63 \; pd dsp 1;
#X obj 106 637 sel 0;
#X obj 212 638 sel 0;
#X obj 323 634 sel 0;
#X obj 104 336 list prepend 0;
#X obj 104 381 route 0 1 2 3 4 5 6 7;
#X obj 550 609 unpack float float float float, f 45;
#X obj 550 636 sel 0;
#X obj 654 635 sel 0;
#X obj 758 633 sel 0;
#X obj 862 633 sel 0;
#X obj 550 660 bng 19 250 50 0 empty empty empty 0 -10 0 12 #fcfcfc #000000 #000000;
#X obj 654 660 bng 19 250 50 0 empty empty empty 0 -10 0 12 #fcfcfc #000000 #000000;
#X obj 758 656 bng 19 250 50 0 empty empty empty 0 -10 0 12 #fcfcfc #000000 #000000;
#X obj 862 658 bng 19 250 50 0 empty empty empty 0 -10 0 12 #fcfcfc #000000 #000000;
#X obj 199 179 vradio 19 1 0 8 empty empty empty 0 -10 0 12 #fcfcfc #000000 #000000 0;
#X obj 431 637 sel 0;
#X obj 211 694 tabplay~ 1_2;
#X text 99 21 Get color / switches data;
#X text 828 38 Load sound files;
#X text 690 15 Send a "bang" when loading the patch;
#X text 303 122 If data is about "color";
#X text 105 146 If data is about "switches";
#X text 306 444 data range 0-255;
#X text 112 557 data \; pushed 0 \; released 1 \;;
#X text 194 78 data format \; /value 0 0 0 \; /btns 0 0 0 0;
#X obj 611 190 route shutter;
#N canvas 0 50 450 250 (subpatch) 0;
#X array shutter 48895 float 2;
#A color 0;
#A width 2;
#X coords 0 1 48895 -1 200 140 1 0 0;
#X restore 2181 495 graph;
#X obj 107 829 dac~ 2;
#X obj 108 787 *~ 3;
#X floatatom 173 782 5 0 0 0 - - - 0;
#X msg 718 415 read -resize sounds/shutter.wav shutter;
#X obj 609 217 tabplay~ shutter;
#X obj 610 243 send~ shutter_sound;
#X obj 287 800 receive~ shutter_sound;
#X obj 537 342 bng 19 250 50 0 empty empty empty 0 -10 0 12 #fcfcfc #000000 #000000;
#N canvas 0 50 450 250 (subpatch) 0;
#X array 3_1 140475 float 2;
#A color 0;
#A width 2;
#X coords 0 1 140475 -1 200 140 1 0 0;
#X restore 1943 25 graph;
#N canvas 0 50 450 250 (subpatch) 0;
#X array 3_2 217366 float 2;
#A color 0;
#A width 2;
#X coords 0 1 217366 -1 200 140 1 0 0;
#X restore 1937 182 graph;
#N canvas 0 50 450 250 (subpatch) 0;
#X array 3_3 145572 float 2;
#A color 0;
#A width 2;
#X coords 0 1 145572 -1 200 140 1 0 0;
#X restore 1936 344 graph;
#N canvas 0 50 450 250 (subpatch) 0;
#X array 3_4 208220 float 2;
#A color 0;
#A width 2;
#X coords 0 1 208220 -1 200 140 1 0 0;
#X restore 1937 491 graph;
#X msg 932 299 read -resize sounds/3_1.wav 3_1;
#X msg 948 324 read -resize sounds/3_2.wav 3_2;
#X msg 964 349 read -resize sounds/3_3.wav 3_3;
#X msg 984 374 read -resize sounds/3_4.wav 3_4;
#X obj 803 62 t b b b b b b b b b b b b;
#X obj 960 607 unpack float float float float, f 45;
#X obj 960 634 sel 0;
#X obj 1064 633 sel 0;
#X obj 1168 631 sel 0;
#X obj 1272 631 sel 0;
#X obj 960 658 bng 19 250 50 0 empty empty empty 0 -10 0 12 #fcfcfc #000000 #000000;
#X obj 1064 658 bng 19 250 50 0 empty empty empty 0 -10 0 12 #fcfcfc #000000 #000000;
#X obj 1168 654 bng 19 250 50 0 empty empty empty 0 -10 0 12 #fcfcfc #000000 #000000;
#X obj 1272 656 bng 19 250 50 0 empty empty empty 0 -10 0 12 #fcfcfc #000000 #000000;
#X obj 959 684 tabplay~ 3_1;
#X obj 1064 683 tabplay~ 3_2;
#X obj 1168 682 tabplay~ 3_3;
#X obj 1272 682 tabplay~ 3_4;
#X obj 486 806 receive~ sound3;
#X obj 958 749 send~ sound3;
#X msg 534 371 1;
#X obj 533 397 +;
#X floatatom 594 372 5 0 0 0 - - - 0;
#X obj 534 426 % 3;
#X floatatom 535 454 5 0 0 0 - - - 0;
#X connect 0 0 1 0;
#X connect 1 0 2 0;
#X connect 2 0 3 0;
#X connect 2 0 11 0;
#X connect 2 0 70 0;
#X connect 3 0 4 0;
#X connect 4 0 6 0;
#X connect 4 1 5 0;
#X connect 4 2 7 0;
#X connect 5 0 9 0;
#X connect 6 0 10 0;
#X connect 7 0 8 0;
#X connect 11 0 48 0;
#X connect 12 0 20 0;
#X connect 13 0 61 0;
#X connect 14 0 45 0;
#X connect 14 1 46 0;
#X connect 14 2 47 0;
#X connect 14 3 60 0;
#X connect 15 0 29 0;
#X connect 16 0 30 0;
#X connect 18 0 88 0;
#X connect 20 0 73 0;
#X connect 24 0 17 0;
#X connect 25 0 17 0;
#X connect 26 0 17 0;
#X connect 27 0 17 0;
#X connect 29 0 73 0;
#X connect 30 0 73 0;
#X connect 35 0 17 0;
#X connect 36 0 17 0;
#X connect 37 0 17 0;
#X connect 38 0 17 0;
#X connect 39 0 73 0;
#X connect 40 0 73 0;
#X connect 41 0 73 0;
#X connect 42 0 73 0;
#X connect 43 0 44 0;
#X connect 43 0 75 0;
#X connect 43 0 88 0;
#X connect 45 0 12 0;
#X connect 46 0 13 0;
#X connect 47 0 15 0;
#X connect 48 0 49 0;
#X connect 49 0 14 0;
#X connect 49 1 50 0;
#X connect 49 2 89 0;
#X connect 50 0 51 0;
#X connect 50 1 52 0;
#X connect 50 2 53 0;
#X connect 50 3 54 0;
#X connect 51 0 55 0;
#X connect 52 0 56 0;
#X connect 53 0 57 0;
#X connect 54 0 58 0;
#X connect 55 0 39 0;
#X connect 56 0 40 0;
#X connect 57 0 41 0;
#X connect 58 0 42 0;
#X connect 59 0 48 1;
#X connect 60 0 16 0;
#X connect 61 0 73 0;
#X connect 70 0 76 0;
#X connect 73 0 72 0;
#X connect 74 0 73 1;
#X connect 75 0 17 0;
#X connect 76 0 77 0;
#X connect 78 0 73 0;
#X connect 79 0 76 0;
#X connect 79 0 104 0;
#X connect 84 0 17 0;
#X connect 85 0 17 0;
#X connect 86 0 17 0;
#X connect 87 0 17 0;
#X connect 88 0 24 0;
#X connect 88 1 25 0;
#X connect 88 2 27 0;
#X connect 88 3 26 0;
#X connect 88 4 36 0;
#X connect 88 5 35 0;
#X connect 88 6 37 0;
#X connect 88 7 38 0;
#X connect 88 8 84 0;
#X connect 88 9 85 0;
#X connect 88 10 86 0;
#X connect 88 11 87 0;
#X connect 89 0 90 0;
#X connect 89 1 91 0;
#X connect 89 2 92 0;
#X connect 89 3 93 0;
#X connect 90 0 94 0;
#X connect 91 0 95 0;
#X connect 92 0 96 0;
#X connect 93 0 97 0;
#X connect 94 0 98 0;
#X connect 95 0 99 0;
#X connect 96 0 100 0;
#X connect 97 0 101 0;
#X connect 98 0 103 0;
#X connect 99 0 103 0;
#X connect 100 0 103 0;
#X connect 101 0 103 0;
#X connect 102 0 73 0;
#X connect 104 0 105 0;
#X connect 105 0 106 0;
#X connect 105 0 107 0;
#X connect 106 0 105 1;
#X connect 107 0 108 0;
#X connect 108 0 59 0;
