#N canvas 715 157 750 611 12;
#X obj 128 162 print;
#X obj 63 4 bng 20 250 50 0 empty empty empty 0 -10 0 12 #fcfcfc #000000 #000000;
#X obj 120 19 netreceive -u -b 3000;
#X obj 123 55 oscparse;
#X obj 128 102 route list;
#X obj 275 128 route value;
#X obj 266 182 unpack float float float;
#X obj 187 324 vsl 40 170 0 255 0 0 empty empty G 0 -9 0 40 #fcfcfc #000000 #000000 0 1;
#X obj 269 325 vsl 40 170 0 255 0 0 empty empty B 0 -9 0 40 #fcfcfc #000000 #000000 0 1;
#X obj 105 325 vsl 40 170 0 255 0 0 empty empty \ R 0 -9 0 40 #fcfcfc #000000 #000000 0 1;
#X floatatom 104 516 0 0 0 0 - - - 24;
#X floatatom 185 520 0 0 0 0 - - - 24;
#X floatatom 269 520 0 0 0 0 - - - 24;
#X obj 418 274 route btns;
#X obj 340 478 bng 20 250 50 0 empty empty empty 0 -10 0 12 #fcfcfc #000000 #000000;
#X obj 386 476 bng 20 250 50 0 empty empty empty 0 -10 0 12 #fcfcfc #000000 #000000;
#X obj 340 377 unpack float float float float;
#X obj 463 478 bng 20 250 50 0 empty empty empty 0 -10 0 12 #fcfcfc #000000 #000000;
#X obj 532 479 bng 20 250 50 0 empty empty empty 0 -10 0 12 #fcfcfc #000000 #000000;
#X obj 340 430 sel 0;
#X obj 392 432 sel 0;
#X obj 472 432 sel 0;
#X obj 538 434 sel 0;
#X obj 243 53 read;
#X obj 489 318 soundfiler;
#X obj 401 39 bng 20 250 50 0 empty empty empty 0 -10 0 12 #fcfcfc #000000 #000000;
#N canvas 0 50 450 250 (subpatch) 0;
#X array 1_1 18000 float 2;
#X coords 0 1 18000 -1 200 140 1 0 0;
#X restore 748 58 graph;
#X obj 335 579 tabplay~ 1_1;
#N canvas 0 50 450 250 (subpatch) 0;
#X array 1_2 18000 float 2;
#X coords 0 1 18000 -1 200 140 1 0 0;
#X restore 742 215 graph;
#N canvas 0 50 450 250 (subpatch) 0;
#X array 1_3 18000 float 2;
#X coords 0 1 18000 -1 200 140 1 0 0;
#X restore 741 377 graph;
#X obj 1273 889 bng 20 250 50 0 empty empty empty 0 -10 0 12 #fcfcfc #000000 #000000;
#X msg 459 105 read -resize sounds/1_1.wav 1_1;
#X obj 452 70 t b b b b b b b b;
#X msg 477 152 read -resize sounds/1_2.wav 1_2;
#X msg 505 233 read -resize sounds/1_4.wav 1_4;
#X msg 492 194 read -resize sounds/1_3.wav 1_3;
#N canvas 0 50 450 250 (subpatch) 0;
#X array 1_4 96000 float 2;
#X coords 0 1 96000 -1 200 140 1 0 0;
#X restore 742 524 graph;
#X obj 435 577 tabplay~ 1_2;
#X obj 538 585 tabplay~ 1_3;
#X obj 637 585 tabplay~ 1_4;
#X obj 341 706 dac~;
#X connect 1 0 0 0;
#X connect 2 0 3 0;
#X connect 3 0 4 0;
#X connect 4 0 5 0;
#X connect 4 0 13 0;
#X connect 5 0 0 0;
#X connect 5 0 6 0;
#X connect 6 0 8 0;
#X connect 6 1 7 0;
#X connect 6 2 9 0;
#X connect 7 0 11 0;
#X connect 8 0 12 0;
#X connect 9 0 10 0;
#X connect 13 0 0 0;
#X connect 13 0 16 0;
#X connect 14 0 27 0;
#X connect 15 0 37 0;
#X connect 16 0 19 0;
#X connect 16 1 20 0;
#X connect 16 2 21 0;
#X connect 16 3 22 0;
#X connect 17 0 38 0;
#X connect 18 0 39 0;
#X connect 19 0 14 0;
#X connect 20 0 15 0;
#X connect 21 0 17 0;
#X connect 22 0 18 0;
#X connect 25 0 32 0;
#X connect 27 0 40 0;
#X connect 27 1 40 1;
#X connect 31 0 24 0;
#X connect 32 0 31 0;
#X connect 32 1 33 0;
#X connect 32 2 35 0;
#X connect 32 3 34 0;
#X connect 33 0 24 0;
#X connect 34 0 24 0;
#X connect 35 0 24 0;
