#N canvas 316 68 964 673 12;
#X obj 101 43 netreceive -u -b 3000;
#X obj 101 74 oscparse;
#X obj 101 105 route list;
#X obj 304 145 route value;
#X obj 304 184 unpack float float float;
#X obj 377 229 vsl 40 170 0 255 0 0 empty empty G 0 -9 0 40 #fcfcfc #000000 #000000 0 1;
#X obj 433 228 vsl 40 170 0 255 0 0 empty empty B 0 -9 0 40 #fcfcfc #000000 #000000 0 1;
#X obj 308 230 vsl 40 170 0 255 0 0 empty empty \ R 0 -9 0 40 #fcfcfc #000000 #000000 0 1;
#X floatatom 306 411 0 0 0 0 - - - 24;
#X floatatom 375 412 0 0 0 0 - - - 24;
#X floatatom 431 411 0 0 0 0 - - - 24;
#X obj 101 165 route btns;
#X obj 106 664 bng 20 250 50 0 empty empty empty 0 -10 0 12 #fcfcfc #000000 #000000;
#X obj 212 664 bng 20 250 50 0 empty empty empty 0 -10 0 12 #fcfcfc #000000 #000000;
#X obj 106 607 unpack float float float float, f 47;
#X obj 323 662 bng 20 250 50 0 empty empty empty 0 -10 0 12 #fcfcfc #000000 #000000;
#X obj 431 661 bng 20 250 50 0 empty empty empty 0 -10 0 12 #fcfcfc #000000 #000000;
#X obj 509 338 soundfiler;
#X obj 505 38 bng 20 250 50 0 empty empty empty 0 -10 0 12 #fcfcfc #000000 #000000;
#N canvas 0 50 450 250 (subpatch) 0;
#X array 1_1 13200 float 2;
#A color 0;
#A width 2;
#X coords 0 1 13200 -1 200 140 1 0 0;
#X restore 961 24 graph;
#X obj 106 695 tabplay~ 1_1;
#N canvas 0 50 450 250 (subpatch) 0;
#X array 1_2 18000 float 2;
#A color 0;
#A width 2;
#X coords 0 1 18000 -1 200 140 1 0 0;
#X restore 962 184 graph;
#N canvas 0 50 450 250 (subpatch) 0;
#X array 1_3 18000 float 2;
#A color 0;
#A width 2;
#X coords 0 1 18000 -1 200 140 1 0 0;
#X restore 961 345 graph;
#X obj 1428 980 bng 20 250 50 0 empty empty empty 0 -10 0 12 #fcfcfc #000000 #000000;
#X msg 504 90 read -resize sounds/1_1.wav 1_1;
#X obj 504 61 t b b b b b b b b;
#X msg 520 118 read -resize sounds/1_2.wav 1_2;
#X msg 552 169 read -resize sounds/1_4.wav 1_4;
#X msg 535 145 read -resize sounds/1_3.wav 1_3;
#N canvas 0 50 450 250 (subpatch) 0;
#X array 1_4 96000 float 2;
#A color 0;
#A width 2;
#X coords 0 1 96000 -1 200 140 1 0 0;
#X restore 962 493 graph;
#X obj 323 691 tabplay~ 1_3;
#X obj 431 691 tabplay~ 1_4;
#X obj 110 854 dac~;
#N canvas 0 50 450 250 (subpatch) 0;
#X array 2_1 96000 float 2;
#A color 0;
#A width 2;
#X coords 0 1 96000 -1 200 140 1 0 0;
#X restore 1210 28 graph;
#N canvas 0 50 450 250 (subpatch) 0;
#X array 2_2 96000 float 2;
#A color 0;
#A width 2;
#X coords 0 1 96000 -1 200 140 1 0 0;
#X restore 1204 185 graph;
#N canvas 0 50 450 250 (subpatch) 0;
#X array 2_3 96000 float 2;
#A color 0;
#A width 2;
#X coords 0 1 96000 -1 200 140 1 0 0;
#X restore 1203 347 graph;
#N canvas 0 50 450 250 (subpatch) 0;
#X array 2_4 96000 float 2;
#A color 0;
#A width 2;
#X coords 0 1 96000 -1 200 140 1 0 0;
#X restore 1204 494 graph;
#X msg 585 220 read -resize sounds/2_2.wav 2_2;
#X msg 569 195 read -resize sounds/2_1.wav 2_1;
#X msg 601 245 read -resize sounds/2_3.wav 2_3;
#X msg 621 270 read -resize sounds/2_4.wav 2_4;
#X obj 553 847 dac~;
#X obj 549 686 tabplay~ 2_1;
#X obj 654 685 tabplay~ 2_2;
#X obj 758 684 tabplay~ 2_3;
#X obj 862 684 tabplay~ 2_4;
#X obj 392 40 loadbang;
#X msg 393 64 \; pd dsp 1;
#X obj 106 637 sel 0;
#X obj 212 638 sel 0;
#X obj 323 634 sel 0;
#X obj 104 336 list prepend 0;
#X obj 104 381 route 0 1 2 3 4 5 6 7;
#X obj 550 609 unpack float float float float, f 45;
#X obj 550 636 sel 0;
#X obj 654 635 sel 0;
#X obj 758 633 sel 0;
#X obj 862 633 sel 0;
#X obj 550 660 bng 19 250 50 0 empty empty empty 0 -10 0 12 #fcfcfc #000000 #000000;
#X obj 654 660 bng 19 250 50 0 empty empty empty 0 -10 0 12 #fcfcfc #000000 #000000;
#X obj 758 656 bng 19 250 50 0 empty empty empty 0 -10 0 12 #fcfcfc #000000 #000000;
#X obj 862 658 bng 19 250 50 0 empty empty empty 0 -10 0 12 #fcfcfc #000000 #000000;
#X obj 199 179 vradio 19 1 0 8 empty empty empty 0 -10 0 12 #fcfcfc #000000 #000000 0;
#X obj 431 637 sel 0;
#X obj 211 694 tabplay~ 1_2;
#X text 99 21 Get color / switches data;
#X text 529 37 Load sound files;
#X text 391 14 Send a "bang" when loading the patch;
#X text 303 122 If data is about "color";
#X text 105 146 If data is about "switches";
#X text 306 444 data range 0-255;
#X text 112 557 data \; pushed 0 \; released 1 \;;
#X text 194 78 data format \; /value 0 0 0 \; /btns 0 0 0 0;
#X connect 0 0 1 0;
#X connect 1 0 2 0;
#X connect 2 0 3 0;
#X connect 2 0 11 0;
#X connect 3 0 4 0;
#X connect 4 0 6 0;
#X connect 4 1 5 0;
#X connect 4 2 7 0;
#X connect 5 0 9 0;
#X connect 6 0 10 0;
#X connect 7 0 8 0;
#X connect 11 0 51 0;
#X connect 12 0 20 0;
#X connect 13 0 64 0;
#X connect 14 0 48 0;
#X connect 14 1 49 0;
#X connect 14 2 50 0;
#X connect 14 3 63 0;
#X connect 15 0 30 0;
#X connect 16 0 31 0;
#X connect 18 0 25 0;
#X connect 20 0 32 0;
#X connect 20 1 32 1;
#X connect 24 0 17 0;
#X connect 25 0 24 0;
#X connect 25 1 26 0;
#X connect 25 2 28 0;
#X connect 25 3 27 0;
#X connect 25 4 38 0;
#X connect 25 5 37 0;
#X connect 25 6 39 0;
#X connect 25 7 40 0;
#X connect 26 0 17 0;
#X connect 27 0 17 0;
#X connect 28 0 17 0;
#X connect 30 0 32 0;
#X connect 30 1 32 1;
#X connect 31 0 32 0;
#X connect 31 1 32 1;
#X connect 37 0 17 0;
#X connect 38 0 17 0;
#X connect 39 0 17 0;
#X connect 40 0 17 0;
#X connect 42 0 41 0;
#X connect 42 1 41 1;
#X connect 43 0 41 0;
#X connect 43 1 41 1;
#X connect 44 0 41 0;
#X connect 44 1 41 1;
#X connect 45 0 41 0;
#X connect 45 1 41 1;
#X connect 46 0 25 0;
#X connect 46 0 47 0;
#X connect 48 0 12 0;
#X connect 49 0 13 0;
#X connect 50 0 15 0;
#X connect 51 0 52 0;
#X connect 52 0 14 0;
#X connect 52 1 53 0;
#X connect 53 0 54 0;
#X connect 53 1 55 0;
#X connect 53 2 56 0;
#X connect 53 3 57 0;
#X connect 54 0 58 0;
#X connect 55 0 59 0;
#X connect 56 0 60 0;
#X connect 57 0 61 0;
#X connect 58 0 42 0;
#X connect 59 0 43 0;
#X connect 60 0 44 0;
#X connect 61 0 45 0;
#X connect 62 0 51 1;
#X connect 63 0 16 0;
#X connect 64 0 32 0;
#X connect 64 1 32 1;
