#N canvas 661 131 964 673 12;
#X obj 128 162 print;
#X obj 63 4 bng 20 250 50 0 empty empty empty 0 -10 0 12 #fcfcfc #000000 #000000;
#X obj 120 19 netreceive -u -b 3000;
#X obj 123 55 oscparse;
#X obj 128 102 route list;
#X obj 275 128 route value;
#X obj 266 182 unpack float float float;
#X obj 187 324 vsl 40 170 0 255 0 0 empty empty G 0 -9 0 40 #fcfcfc #000000 #000000 0 1;
#X obj 269 325 vsl 40 170 0 255 0 0 empty empty B 0 -9 0 40 #fcfcfc #000000 #000000 0 1;
#X obj 105 325 vsl 40 170 0 255 0 0 empty empty \ R 0 -9 0 40 #fcfcfc #000000 #000000 0 1;
#X floatatom 104 516 0 0 0 0 - - - 24;
#X floatatom 185 520 0 0 0 0 - - - 24;
#X floatatom 269 520 0 0 0 0 - - - 24;
#X obj 418 274 route btns;
#X obj 340 482 bng 20 250 50 0 empty empty empty 0 -10 0 12 #fcfcfc #000000 #000000;
#X obj 386 476 bng 20 250 50 0 empty empty empty 0 -10 0 12 #fcfcfc #000000 #000000;
#X obj 340 377 unpack float float float float;
#X obj 463 478 bng 20 250 50 0 empty empty empty 0 -10 0 12 #fcfcfc #000000 #000000;
#X obj 532 479 bng 20 250 50 0 empty empty empty 0 -10 0 12 #fcfcfc #000000 #000000;
#X obj 243 53 read;
#X obj 489 318 soundfiler;
#X obj 410 20 bng 20 250 50 0 empty empty empty 0 -10 0 12 #fcfcfc #000000 #000000;
#N canvas 0 50 450 250 (subpatch) 0;
#X array 1_1 13200 float 2;
#X coords 0 1 13200 -1 200 140 1 0 0;
#X restore 748 58 graph;
#X obj 333 601 tabplay~ 1_1;
#N canvas 0 50 450 250 (subpatch) 0;
#X array 1_2 18000 float 2;
#X coords 0 1 18000 -1 200 140 1 0 0;
#X restore 742 215 graph;
#N canvas 0 50 450 250 (subpatch) 0;
#X array 1_3 18000 float 2;
#X coords 0 1 18000 -1 200 140 1 0 0;
#X restore 741 376 graph;
#X obj 1273 889 bng 20 250 50 0 empty empty empty 0 -10 0 12 #fcfcfc #000000 #000000;
#X msg 467 59 read -resize sounds/1_1.wav 1_1;
#X obj 504 28 t b b b b b b b b;
#X msg 469 87 read -resize sounds/1_2.wav 1_2;
#X msg 469 138 read -resize sounds/1_4.wav 1_4;
#X msg 469 115 read -resize sounds/1_3.wav 1_3;
#N canvas 0 50 450 250 (subpatch) 0;
#X array 1_4 96000 float 2;
#X coords 0 1 96000 -1 200 140 1 0 0;
#X restore 742 524 graph;
#X obj 435 577 tabplay~ 1_2;
#X obj 538 585 tabplay~ 1_3;
#X obj 637 585 tabplay~ 1_4;
#X obj 341 706 dac~;
#X obj 121 614 hradio 20 1 0 8 empty empty empty 0 -10 0 12 #fcfcfc #000000 #000000 0;
#X obj 488 836 sel 1 2;
#N canvas 0 50 450 250 (subpatch) 0;
#X array 2_1 96000 float 2;
#X coords 0 1 96000 -1 200 140 1 0 0;
#X restore 996 54 graph;
#N canvas 0 50 450 250 (subpatch) 0;
#X array 2_2 96000 float 2;
#X coords 0 1 96000 -1 200 140 1 0 0;
#X restore 990 211 graph;
#N canvas 0 50 450 250 (subpatch) 0;
#X array 2_3 96000 float 2;
#X coords 0 1 96000 -1 200 140 1 0 0;
#X restore 989 373 graph;
#N canvas 0 50 450 250 (subpatch) 0;
#X array 2_4 96000 float 2;
#X coords 0 1 96000 -1 200 140 1 0 0;
#X restore 990 520 graph;
#X msg 500 194 read -resize sounds/2_2.wav 2_2;
#X msg 487 167 read -resize sounds/2_1.wav 2_1;
#X msg 516 223 read -resize sounds/2_3.wav 2_3;
#X msg 507 245 read -resize sounds/2_4.wav 2_4;
#X obj 731 1091 dac~;
#X obj 634 986 tabplay~ 2_1;
#X obj 734 984 tabplay~ 2_2;
#X obj 826 983 tabplay~ 2_3;
#X obj 933 986 tabplay~ 2_4;
#X obj 350 67 loadbang;
#X msg 660 406 \; pd dsp 1;
#X obj 538 434 sel 0 1;
#X obj 340 430 sel 0;
#X obj 403 432 sel 0;
#X obj 472 432 sel 0;
#X obj 189 682 list prepend 0;
#X obj 184 857 route 0 1 2 3 4 5 6 7;
#X obj 612 780 unpack float float float float;
#X obj 607 874 sel 0;
#X obj 659 874 sel 0;
#X obj 725 866 sel 0;
#X obj 797 863 sel 0;
#X connect 1 0 0 0;
#X connect 2 0 3 0;
#X connect 3 0 4 0;
#X connect 4 0 5 0;
#X connect 4 0 13 0;
#X connect 5 0 0 0;
#X connect 5 0 6 0;
#X connect 6 0 8 0;
#X connect 6 1 7 0;
#X connect 6 2 9 0;
#X connect 7 0 11 0;
#X connect 8 0 12 0;
#X connect 9 0 10 0;
#X connect 13 0 0 0;
#X connect 13 0 58 0;
#X connect 14 0 23 0;
#X connect 15 0 33 0;
#X connect 16 0 55 0;
#X connect 16 1 56 0;
#X connect 16 2 57 0;
#X connect 16 3 54 0;
#X connect 17 0 34 0;
#X connect 18 0 35 0;
#X connect 21 0 28 0;
#X connect 23 0 36 0;
#X connect 23 1 36 1;
#X connect 27 0 20 0;
#X connect 28 0 27 0;
#X connect 28 1 29 0;
#X connect 28 2 31 0;
#X connect 28 3 30 0;
#X connect 28 4 44 0;
#X connect 28 5 43 0;
#X connect 28 6 45 0;
#X connect 28 7 46 0;
#X connect 29 0 20 0;
#X connect 30 0 20 0;
#X connect 31 0 20 0;
#X connect 33 0 36 0;
#X connect 33 1 36 1;
#X connect 34 0 36 0;
#X connect 34 1 36 1;
#X connect 35 0 36 0;
#X connect 35 1 36 1;
#X connect 37 0 58 1;
#X connect 38 0 23 0;
#X connect 43 0 20 0;
#X connect 44 0 20 0;
#X connect 45 0 20 0;
#X connect 46 0 20 0;
#X connect 48 0 47 0;
#X connect 48 1 47 1;
#X connect 49 0 47 0;
#X connect 49 1 47 1;
#X connect 50 0 47 0;
#X connect 50 1 47 1;
#X connect 51 0 47 0;
#X connect 51 1 47 1;
#X connect 52 0 28 0;
#X connect 52 0 53 0;
#X connect 54 0 18 0;
#X connect 55 0 14 0;
#X connect 56 0 15 0;
#X connect 57 0 17 0;
#X connect 58 0 59 0;
#X connect 59 0 16 0;
#X connect 59 1 60 0;
#X connect 60 0 61 0;
#X connect 60 1 62 0;
#X connect 60 2 63 0;
#X connect 60 3 64 0;
#X connect 61 0 48 0;
#X connect 62 0 49 0;
#X connect 63 0 50 0;
#X connect 64 0 51 0;
