#N canvas 1236 218 578 611 12;
#X obj 128 162 print;
#X obj 63 4 bng 20 250 50 0 empty empty empty 0 -10 0 12 #fcfcfc #000000 #000000;
#X obj 120 19 netreceive -u -b 3000;
#X obj 123 55 oscparse;
#X obj 128 102 route list;
#X obj 275 128 route value;
#X obj 266 182 unpack float float float;
#X obj 187 324 vsl 40 170 0 255 0 0 empty empty G 0 -9 0 40 #fcfcfc #000000 #000000 0 1;
#X obj 269 325 vsl 40 170 0 255 0 0 empty empty B 0 -9 0 40 #fcfcfc #000000 #000000 0 1;
#X obj 105 325 vsl 40 170 0 255 0 0 empty empty \ R 0 -9 0 40 #fcfcfc #000000 #000000 0 1;
#X floatatom 104 516 0 0 0 0 - - - 24;
#X floatatom 185 520 0 0 0 0 - - - 24;
#X floatatom 269 520 0 0 0 0 - - - 24;
#X obj 418 274 route btns;
#X obj 340 478 bng 20 250 50 0 empty empty empty 0 -10 0 12 #fcfcfc #000000 #000000;
#X obj 386 476 bng 20 250 50 0 empty empty empty 0 -10 0 12 #fcfcfc #000000 #000000;
#X obj 340 377 unpack float float float float;
#X obj 463 478 bng 20 250 50 0 empty empty empty 0 -10 0 12 #fcfcfc #000000 #000000;
#X obj 532 479 bng 20 250 50 0 empty empty empty 0 -10 0 12 #fcfcfc #000000 #000000;
#X obj 340 430 sel 0;
#X obj 392 432 sel 0;
#X obj 472 432 sel 0;
#X obj 538 434 sel 0;
#X connect 1 0 0 0;
#X connect 2 0 3 0;
#X connect 3 0 4 0;
#X connect 4 0 5 0;
#X connect 4 0 13 0;
#X connect 5 0 0 0;
#X connect 5 0 6 0;
#X connect 6 0 8 0;
#X connect 6 1 7 0;
#X connect 6 2 9 0;
#X connect 7 0 11 0;
#X connect 8 0 12 0;
#X connect 9 0 10 0;
#X connect 13 0 0 0;
#X connect 13 0 16 0;
#X connect 16 0 19 0;
#X connect 16 1 20 0;
#X connect 16 2 21 0;
#X connect 16 3 22 0;
#X connect 19 0 14 0;
#X connect 20 0 15 0;
#X connect 21 0 17 0;
#X connect 22 0 18 0;
