#N canvas 430 68 826 673 12;
#X obj 101 43 netreceive -u -b 3000;
#X obj 101 74 oscparse;
#X obj 101 105 route list;
#X obj 304 144 route value;
#X obj 304 184 unpack float float float;
#X obj 384 227 vsl 40 170 0 255 0 0 empty empty G 9 -9 0 40 #c6ffc7 #000000 #009192 0 1;
#X obj 467 228 vsl 40 170 0 255 0 0 empty empty B 9 -9 0 40 #c6feff #000000 #7980ff 0 1;
#X obj 304 226 vsl 40 170 0 255 0 0 empty empty R 9 -9 0 40 #ffe3c6 #000000 #ff7d78 0 1;
#X floatatom 304 409 0 0 0 0 - - - 24;
#X floatatom 384 409 0 0 0 0 - - - 24;
#X floatatom 466 409 0 0 0 0 - - - 24;
#X obj 101 142 route btns;
#X obj 101 533 bng 20 250 50 0 empty empty empty 0 -10 0 12 #fcfcfc #000000 #000000;
#X obj 275 534 bng 20 250 50 0 empty empty empty 0 -10 0 12 #fcfcfc #000000 #000000;
#X obj 101 476 unpack float float float float, f 75;
#X obj 450 532 bng 20 250 50 0 empty empty empty 0 -10 0 12 #fcfcfc #000000 #000000;
#X obj 624 529 bng 20 250 50 0 empty empty empty 0 -10 0 12 #fcfcfc #000000 #000000;
#X obj 808 371 soundfiler;
#X obj 804 39 bng 20 250 50 0 empty empty empty 0 -10 0 12 #fcfcfc #000000 #000000;
#N canvas 0 50 450 250 (subpatch) 0;
#X array 1_1 13200 float 2;
#A color 0;
#A width 2;
#X coords 0 1 13200 -1 200 140 1 0 0;
#X restore 1480 23 graph;
#N canvas 0 50 450 250 (subpatch) 0;
#X array 1_2 18000 float 2;
#A color 0;
#A width 2;
#X coords 0 1 18000 -1 200 140 1 0 0;
#X restore 1481 183 graph;
#N canvas 0 50 450 250 (subpatch) 0;
#X array 1_3 18000 float 2;
#A color 0;
#A width 2;
#X coords 0 1 18000 -1 200 140 1 0 0;
#X restore 1480 344 graph;
#X obj 1428 980 bng 20 250 50 0 empty empty empty 0 -10 0 12 #fcfcfc #000000 #000000;
#X msg 803 91 read -resize sounds/1_1.wav 1_1;
#X msg 819 119 read -resize sounds/1_2.wav 1_2;
#X msg 851 170 read -resize sounds/1_4.wav 1_4;
#X msg 834 146 read -resize sounds/1_3.wav 1_3;
#N canvas 0 50 450 250 (subpatch) 0;
#X array 1_4 96000 float 2;
#A color 0;
#A width 2;
#X coords 0 1 96000 -1 200 140 1 0 0;
#X restore 1481 492 graph;
#N canvas 0 50 450 250 (subpatch) 0;
#X array 2_1 96000 float 2;
#A color 0;
#A width 2;
#X coords 0 1 96000 -1 200 140 1 0 0;
#X restore 1729 27 graph;
#N canvas 0 50 450 250 (subpatch) 0;
#X array 2_2 96000 float 2;
#A color 0;
#A width 2;
#X coords 0 1 96000 -1 200 140 1 0 0;
#X restore 1723 184 graph;
#N canvas 0 50 450 250 (subpatch) 0;
#X array 2_3 96000 float 2;
#A color 0;
#A width 2;
#X coords 0 1 96000 -1 200 140 1 0 0;
#X restore 1722 346 graph;
#N canvas 0 50 450 250 (subpatch) 0;
#X array 2_4 96000 float 2;
#A color 0;
#A width 2;
#X coords 0 1 96000 -1 200 140 1 0 0;
#X restore 1723 493 graph;
#X msg 884 221 read -resize sounds/2_2.wav 2_2;
#X msg 868 196 read -resize sounds/2_1.wav 2_1;
#X msg 900 246 read -resize sounds/2_3.wav 2_3;
#X msg 920 271 read -resize sounds/2_4.wav 2_4;
#X obj 723 39 loadbang;
#X msg 724 63 \; pd dsp 1;
#X text 99 21 Get color / switches data;
#X text 828 38 Load sound files;
#X text 690 15 Send a "bang" when loading the patch;
#X text 310 163 If data is about "color";
#X text 105 161 If data is about "switches";
#X text 107 426 data \; pushed 0 \; released 1 \;;
#X text 194 78 data format \; /value 0 0 0 \; /btns 0 0 0 0;
#X obj 527 141 route shutter;
#N canvas 0 50 450 250 (subpatch) 0;
#X array shutter 48895 float 2;
#A color 0;
#A width 2;
#X coords 0 1 48895 -1 200 140 1 0 0;
#X restore 2166 673 graph;
#X obj 97 837 dac~ 2;
#X floatatom 123 734 5 0 0 0 - - - 0;
#X msg 729 415 read -resize sounds/shutter.wav shutter;
#X obj 549 178 tabplay~ shutter;
#X obj 549 203 send~ shutter_sound;
#N canvas 0 50 450 250 (subpatch) 0;
#X array 3_1 140475 float 2;
#A color 0;
#A width 2;
#X coords 0 1 140475 -1 200 140 1 0 0;
#X restore 1943 25 graph;
#N canvas 0 50 450 250 (subpatch) 0;
#X array 3_2 217366 float 2;
#A color 0;
#A width 2;
#X coords 0 1 217366 -1 200 140 1 0 0;
#X restore 1937 182 graph;
#N canvas 0 50 450 250 (subpatch) 0;
#X array 3_3 145572 float 2;
#A color 0;
#A width 2;
#X coords 0 1 145572 -1 200 140 1 0 0;
#X restore 1936 344 graph;
#N canvas 0 50 450 250 (subpatch) 0;
#X array 3_4 208220 float 2;
#A color 0;
#A width 2;
#X coords 0 1 208220 -1 200 140 1 0 0;
#X restore 1937 491 graph;
#X msg 932 299 read -resize sounds/3_1.wav 3_1;
#X msg 948 324 read -resize sounds/3_2.wav 3_2;
#X msg 964 349 read -resize sounds/3_3.wav 3_3;
#X msg 984 374 read -resize sounds/3_4.wav 3_4;
#X obj 98 780 *~ 3;
#X obj 107 687 r~ shutter_sound;
#X obj 120 584 makefilename %d_1;
#X msg 119 613 set \$1;
#X obj 98 661 tabplay~ sound1;
#X msg 293 614 set \$1;
#X obj 293 586 makefilename %d_2;
#X obj 275 663 tabplay~ sound2;
#X msg 466 615 set \$1;
#X obj 466 587 makefilename %d_3;
#X obj 452 665 tabplay~ sound3;
#X msg 633 619 set \$1;
#X obj 633 590 makefilename %d_4;
#X obj 623 668 tabplay~ sound4;
#X obj 528 392 + 1;
#N canvas 25 180 450 300 beta-patch 0;
#X obj 101 105 route list;
#X obj 101 165 route btns;
#X obj 106 664 bng 20 250 50 0 empty empty empty 0 -10 0 12 #fcfcfc #000000 #000000;
#X obj 212 664 bng 20 250 50 0 empty empty empty 0 -10 0 12 #fcfcfc #000000 #000000;
#X obj 106 607 unpack float float float float, f 47;
#X obj 323 662 bng 20 250 50 0 empty empty empty 0 -10 0 12 #fcfcfc #000000 #000000;
#X obj 431 661 bng 20 250 50 0 empty empty empty 0 -10 0 12 #fcfcfc #000000 #000000;
#X obj 106 695 tabplay~ 1_1;
#X obj 323 691 tabplay~ 1_3;
#X obj 431 691 tabplay~ 1_4;
#X obj 106 637 sel 0;
#X obj 212 638 sel 0;
#X obj 323 634 sel 0;
#X obj 104 428 list prepend 0;
#X obj 104 463 route 0 1 2 3 4 5 6 7;
#X obj 199 179 vradio 19 1 0 8 empty empty empty 0 -10 0 12 #fcfcfc #000000 #000000 0;
#X obj 431 637 sel 0;
#X obj 211 694 tabplay~ 1_2;
#X text 112 557 data \; pushed 0 \; released 1 \;;
#X obj 104 734 s~ sound-set1;
#X obj 172 512 + 1;
#X connect 0 0 1 0;
#X connect 1 0 13 0;
#X connect 2 0 7 0;
#X connect 3 0 17 0;
#X connect 4 0 10 0;
#X connect 4 1 11 0;
#X connect 4 2 12 0;
#X connect 4 3 16 0;
#X connect 5 0 8 0;
#X connect 6 0 9 0;
#X connect 7 0 19 0;
#X connect 8 0 19 0;
#X connect 9 0 19 0;
#X connect 10 0 2 0;
#X connect 11 0 3 0;
#X connect 12 0 5 0;
#X connect 13 0 14 0;
#X connect 14 0 4 0;
#X connect 15 0 13 1;
#X connect 15 0 20 0;
#X connect 16 0 6 0;
#X connect 17 0 19 0;
#X restore 625 907 pd beta-patch;
#X obj 528 416 s sound-change;
#X obj 120 559 r sound-change;
#X obj 293 558 r sound-change;
#X obj 465 558 r sound-change;
#X obj 633 559 r sound-change;
#N canvas 179 209 450 300 counter 0;
#X obj 117 67 inlet;
#X obj 117 96 bng 19 250 50 0 empty empty empty 0 -10 0 12 #fcfcfc #000000 #000000;
#X msg 116 125 1;
#X obj 115 151 +;
#X floatatom 176 126 5 0 0 0 - - - 0;
#X obj 116 180 % 3;
#X floatatom 117 208 5 0 0 0 - - - 0;
#X obj 252 67 inlet;
#X obj 117 238 outlet;
#X connect 0 0 1 0;
#X connect 1 0 2 0;
#X connect 2 0 3 0;
#X connect 3 0 4 0;
#X connect 3 0 5 0;
#X connect 4 0 3 1;
#X connect 5 0 6 0;
#X connect 6 0 8 0;
#X connect 7 0 5 1;
#X restore 528 302 pd counter;
#X floatatom 595 275 5 0 0 0 - - - 0;
#X text 603 300 range [n \, n - 1];
#X text 303 444 data range [0 \, 255];
#X obj 595 227 loadbang;
#X obj 528 365 hradio 19 1 0 8 empty empty empty 0 -10 0 12 #ffe3c6 #000000 #000000 0;
#X text 550 160 If data is about "camera";
#X text 106 799 all sounds volume;
#X text 536 346 Select Sound;
#X text 859 488 start;
#X obj 819 641 f;
#X obj 872 578 + 1;
#X obj 927 546 sel 0;
#X obj 834 488 bng 19 250 50 0 empty empty empty 17 7 0 10 #dfdfdf #000000 #000000;
#X obj 834 547 until 4;
#N canvas 63 93 450 300 clear-log 0;
#X obj 35 81 f;
#X obj 73 73 + 1;
#X obj 136 122 sel 0;
#X obj 35 42 until 30;
#X obj 73 99 mod 30;
#X msg 136 195 _________________;
#X msg 168 167 :;
#X obj 139 254 print :;
#X obj 36 15 inlet;
#X connect 0 0 1 0;
#X connect 1 0 4 0;
#X connect 2 0 3 1;
#X connect 2 0 5 0;
#X connect 2 1 6 0;
#X connect 3 0 0 0;
#X connect 4 0 0 1;
#X connect 4 0 2 0;
#X connect 5 0 7 0;
#X connect 6 0 7 0;
#X connect 8 0 3 0;
#X restore 1203 797 pd clear-log;
#X obj 1203 769 bng 19 250 50 0 empty empty empty 0 -10 0 12 #fcfcfc #000000 #000000;
#X obj 901 649 bng 19 250 50 0 empty empty empty 0 -10 0 12 #fcfcfc #000000 #000000;
#X obj 850 928 pack f f f f;
#X obj 876 972 print;
#X floatatom 802 876 5 0 0 0 - - - 0;
#X floatatom 870 887 5 0 0 0 - - - 0;
#X floatatom 920 887 5 0 0 0 - - - 0;
#X floatatom 975 885 5 0 0 0 - - - 0;
#X obj 734 777 t;
#X obj 855 738 f;
#X obj 817 790 t f f;
#X obj 948 853 t b f f;
#X obj 1202 655 f;
#X obj 1255 592 + 1;
#X obj 1310 560 sel 0;
#X obj 1217 502 bng 19 250 50 0 empty empty empty 17 7 0 10 #dfdfdf #000000 #000000;
#X obj 1217 561 until 4;
#X obj 1255 618 mod 4;
#X obj 1203 694 print;
#X obj 872 604 mod 5;
#X obj 818 766 + 1;
#X obj 932 765 f;
#X obj 985 702 + 1;
#X obj 1040 670 sel 0;
#X obj 947 671 until 4;
#X obj 985 728 mod 5;
#N canvas 0 50 450 250 (subpatch) 0;
#X array 4_1 282240 float 2;
#A color 0;
#A width 2;
#X coords 0 1 282240 -1 200 140 1 0 0;
#X restore 2160 19 graph;
#N canvas 0 50 450 250 (subpatch) 0;
#X array 4_2 282240 float 2;
#A color 0;
#A width 2;
#X coords 0 1 282240 -1 200 140 1 0 0;
#X restore 2154 176 graph;
#N canvas 0 50 450 250 (subpatch) 0;
#X array 4_3 17640 float 2;
#A color 0;
#A width 2;
#X coords 0 1 17640 -1 200 140 1 0 0;
#X restore 2153 338 graph;
#N canvas 0 50 450 250 (subpatch) 0;
#X array 4_4 145898 float 2;
#A color 0;
#A width 2;
#X coords 0 1 145898 -1 200 140 1 0 0;
#X restore 2154 485 graph;
#X msg 996 397 read -resize sounds/4_1.wav 4_1;
#X msg 1012 422 read -resize sounds/4_2.wav 4_2;
#X msg 1028 447 read -resize sounds/4_3.wav 4_3;
#X msg 1048 472 read -resize sounds/4_4.wav 4_4;
#X msg 595 251 4;
#X obj 24 612 spigot;
#X obj 41 540 tgl 19 0 empty empty empty 0 -10 0 12 #fcfcfc #000000 #000000 0 1;
#X obj 232 832 spigot;
#X obj 311 860 tgl 19 0 empty empty empty 0 -10 0 12 #fcfcfc #000000 #000000 0 1;
#X obj 390 831 spigot;
#X obj 457 828 tgl 19 0 empty empty empty 0 -10 0 12 #fcfcfc #000000 #000000 0 1;
#X msg 56 439 0;
#X msg 22 450 1;
#X msg 362 747 0;
#X msg 328 758 1;
#X msg 590 793 0;
#X msg 471 766 1;
#X obj 803 62 t b b b b b b b b b b b b b b b b;
#X obj 101 506 sel 0 1;
#X obj 275 508 sel 0 1;
#X obj 450 504 sel 0 1;
#X obj 624 505 sel 0 1;
#X connect 0 0 1 0;
#X connect 1 0 2 0;
#X connect 2 0 3 0;
#X connect 2 0 11 0;
#X connect 2 0 45 0;
#X connect 3 0 4 0;
#X connect 4 0 7 0;
#X connect 4 1 5 0;
#X connect 4 2 6 0;
#X connect 5 0 9 0;
#X connect 6 0 10 0;
#X connect 7 0 8 0;
#X connect 11 0 14 0;
#X connect 12 0 64 0;
#X connect 13 0 67 0;
#X connect 14 0 145 0;
#X connect 14 1 146 0;
#X connect 14 2 147 0;
#X connect 14 3 148 0;
#X connect 15 0 70 0;
#X connect 16 0 73 0;
#X connect 18 0 144 0;
#X connect 23 0 17 0;
#X connect 24 0 17 0;
#X connect 25 0 17 0;
#X connect 26 0 17 0;
#X connect 32 0 17 0;
#X connect 33 0 17 0;
#X connect 34 0 17 0;
#X connect 35 0 17 0;
#X connect 36 0 37 0;
#X connect 36 0 49 0;
#X connect 36 0 144 0;
#X connect 45 0 50 0;
#X connect 45 0 81 0;
#X connect 48 0 60 1;
#X connect 49 0 17 0;
#X connect 50 0 51 0;
#X connect 56 0 17 0;
#X connect 57 0 17 0;
#X connect 58 0 17 0;
#X connect 59 0 17 0;
#X connect 60 0 47 0;
#X connect 61 0 60 0;
#X connect 62 0 63 0;
#X connect 63 0 64 0;
#X connect 64 0 60 0;
#X connect 64 1 132 0;
#X connect 65 0 67 0;
#X connect 66 0 65 0;
#X connect 67 0 60 0;
#X connect 67 1 134 0;
#X connect 68 0 70 0;
#X connect 69 0 68 0;
#X connect 70 0 60 0;
#X connect 70 1 136 0;
#X connect 71 0 73 0;
#X connect 72 0 71 0;
#X connect 73 0 60 0;
#X connect 74 0 76 0;
#X connect 77 0 62 0;
#X connect 78 0 66 0;
#X connect 79 0 69 0;
#X connect 80 0 72 0;
#X connect 81 0 86 0;
#X connect 82 0 81 1;
#X connect 85 0 131 0;
#X connect 85 0 86 0;
#X connect 86 0 74 0;
#X connect 91 0 92 0;
#X connect 91 0 98 0;
#X connect 92 0 116 0;
#X connect 93 0 95 1;
#X connect 94 0 95 0;
#X connect 95 0 91 0;
#X connect 97 0 96 0;
#X connect 98 0 121 0;
#X connect 99 0 100 0;
#X connect 101 0 99 0;
#X connect 102 0 99 1;
#X connect 103 0 99 2;
#X connect 104 0 99 3;
#X connect 106 0 117 0;
#X connect 107 0 101 0;
#X connect 107 1 103 0;
#X connect 108 0 106 0;
#X connect 108 1 102 0;
#X connect 108 2 104 0;
#X connect 109 0 110 0;
#X connect 109 0 115 0;
#X connect 110 0 114 0;
#X connect 111 0 113 1;
#X connect 112 0 113 0;
#X connect 113 0 109 0;
#X connect 114 0 109 1;
#X connect 114 0 111 0;
#X connect 116 0 91 1;
#X connect 116 0 93 0;
#X connect 116 0 106 1;
#X connect 117 0 107 0;
#X connect 118 0 119 0;
#X connect 118 0 108 0;
#X connect 119 0 122 0;
#X connect 120 0 121 1;
#X connect 121 0 118 0;
#X connect 122 0 118 1;
#X connect 122 0 120 0;
#X connect 127 0 17 0;
#X connect 128 0 17 0;
#X connect 129 0 17 0;
#X connect 130 0 17 0;
#X connect 131 0 82 0;
#X connect 132 0 12 0;
#X connect 133 0 132 1;
#X connect 134 0 13 0;
#X connect 135 0 134 1;
#X connect 136 0 15 0;
#X connect 137 0 136 1;
#X connect 138 0 133 0;
#X connect 139 0 133 0;
#X connect 140 0 135 0;
#X connect 141 0 135 0;
#X connect 142 0 137 0;
#X connect 143 0 137 0;
#X connect 144 0 23 0;
#X connect 144 1 24 0;
#X connect 144 2 26 0;
#X connect 144 3 25 0;
#X connect 144 4 33 0;
#X connect 144 5 32 0;
#X connect 144 6 34 0;
#X connect 144 7 35 0;
#X connect 144 8 56 0;
#X connect 144 9 57 0;
#X connect 144 10 58 0;
#X connect 144 11 59 0;
#X connect 144 12 127 0;
#X connect 144 13 128 0;
#X connect 144 14 129 0;
#X connect 144 15 130 0;
#X connect 145 0 12 0;
#X connect 145 0 139 0;
#X connect 145 1 138 0;
#X connect 146 0 13 0;
#X connect 146 0 141 0;
#X connect 146 1 140 0;
#X connect 147 0 15 0;
#X connect 147 0 143 0;
#X connect 147 1 142 0;
#X connect 148 0 16 0;
